<?xml version="1.0" encoding="UTF-8" standalone="no"?>
<svg
   xmlns:dc="http://purl.org/dc/elements/1.1/"
   xmlns:cc="http://creativecommons.org/ns#"
   xmlns:rdf="http://www.w3.org/1999/02/22-rdf-syntax-ns#"
   xmlns:svg="http://www.w3.org/2000/svg"
   xmlns="http://www.w3.org/2000/svg"
   xmlns:sodipodi="http://sodipodi.sourceforge.net/DTD/sodipodi-0.dtd"
   xmlns:inkscape="http://www.inkscape.org/namespaces/inkscape"
   width="218pt"
   height="246pt"
   viewBox="0 0 218 246"
   version="1.1"
   id="svg3734"
   sodipodi:docname="menu_icon.svg"
   inkscape:version="0.92.0 r">
  <metadata
     id="metadata3740">
    <rdf:RDF>
      <cc:Work
         rdf:about="">
        <dc:format>image/svg+xml</dc:format>
        <dc:type
           rdf:resource="http://purl.org/dc/dcmitype/StillImage" />
      </cc:Work>
    </rdf:RDF>
  </metadata>
  <defs
     id="defs3738">
    <filter
       inkscape:label="Light Eraser"
       style="color-interpolation-filters:sRGB;"
       id="filter3842">
      <feColorMatrix
         values="1 0 0 0 0 0 1 0 0 0 0 0 1 0 0 -21.25 -71.54 -7.21 50 0 "
         result="colormatrix"
         id="feColorMatrix3838" />
      <feComposite
         in2="colormatrix"
         operator="arithmetic"
         k2="1"
         result="composite"
         id="feComposite3840" />
    </filter>
  </defs>
  <sodipodi:namedview
     pagecolor="#ffffff"
     bordercolor="#666666"
     borderopacity="1"
     objecttolerance="10"
     gridtolerance="10"
     guidetolerance="10"
     inkscape:pageopacity="0"
     inkscape:pageshadow="2"
     inkscape:window-width="1366"
     inkscape:window-height="747"
     id="namedview3736"
     showgrid="false"
     inkscape:zoom="1.6890244"
     inkscape:cx="145.33333"
     inkscape:cy="164"
     inkscape:window-x="0"
     inkscape:window-y="0"
     inkscape:window-maximized="0"
     inkscape:current-layer="svg3734" />
  <path
     d=" M 0.00 0.00 L 54.60 0.00 C 47.23 1.31 38.87 2.37 33.48 8.14 C 45.35 76.08 57.48 143.97 69.45 211.89 C 71.04 221.32 77.08 230.21 86.06 233.94 C 96.08 238.06 108.16 238.19 117.62 232.52 C 121.96 229.99 125.24 226.04 127.53 221.62 C 148.79 177.34 170.20 133.13 191.45 88.85 C 193.01 80.64 186.16 72.52 177.93 71.87 C 171.49 70.60 164.72 72.06 159.02 75.18 C 154.23 77.65 148.15 78.78 143.31 75.82 C 135.66 71.45 132.34 62.70 128.83 55.10 C 120.16 37.13 108.20 19.93 91.06 9.14 C 82.99 4.10 73.78 1.14 64.36 0.00 L 218.00 0.00 L 218.00 246.00 L 0.00 246.00 L 0.00 0.00 Z"
     id="path3730"
     fill="#ffffff"
     style="filter:url(#filter3842)" />
  <path
     fill="#2a2829"
     d=" M 54.60 0.00 L 64.36 0.00 C 73.78 1.14 82.99 4.10 91.06 9.14 C 108.20 19.93 120.16 37.13 128.83 55.10 C 132.34 62.70 135.66 71.45 143.31 75.82 C 148.15 78.78 154.23 77.65 159.02 75.18 C 164.72 72.06 171.49 70.60 177.93 71.87 C 186.16 72.52 193.01 80.64 191.45 88.85 C 170.20 133.13 148.79 177.34 127.53 221.62 C 125.24 226.04 121.96 229.99 117.62 232.52 C 108.16 238.19 96.08 238.06 86.06 233.94 C 77.08 230.21 71.04 221.32 69.45 211.89 C 57.48 143.97 45.35 76.08 33.48 8.14 C 38.87 2.37 47.23 1.31 54.60 0.00 Z"
     id="path3732" />
</svg>
